<?xml version="1.0" standalone="no"?>
<svg viewBox="0 0 200 200" xmlns="http://www.w3.org/2000/svg">
  <path fill="#FF0066" d="M25.5,-39.1C35,-38.6,46.1,-35.8,54.2,-28.9C62.3,-22,67.5,-11,67,-0.3C66.6,10.5,60.5,21,50.8,25.1C41.1,29.2,27.7,27,18.6,34.7C9.5,42.4,4.8,60.1,-4.1,67.2C-12.9,74.3,-25.9,70.7,-38.1,64.8C-50.2,58.9,-61.6,50.5,-68.9,39.3C-76.2,28.1,-79.3,14.1,-76.2,1.8C-73.1,-10.4,-63.6,-20.9,-56.1,-31.6C-48.5,-42.3,-42.9,-53.4,-33.8,-54.1C-24.8,-54.9,-12.4,-45.3,-2.2,-41.4C8,-37.6,15.9,-39.5,25.5,-39.1Z" transform="translate(100 100)" />
</svg>
